/* XPM */
static char *ce9afcbd8a624e389e9ad740b2651135PAcW18VBn57P0qjj[] = {
/* columns rows colors chars-per-pixel */
"50 50 206 2 ",
"   c None",
".  c #201E30",
"X  c #201F30",
"o  c #211F30",
"O  c #221E30",
"+  c #301F34",
"@  c #212E2B",
"#  c #22292C",
"$  c #222C2C",
"%  c #262E2D",
"&  c #2A2E2E",
"*  c #2B2F2E",
"=  c #22322A",
"-  c #2D312E",
";  c #2F352D",
":  c #233828",
">  c #233928",
",  c #303E2A",
"<  c #353F2B",
"1  c #212030",
"2  c #222030",
"3  c #352332",
"4  c #392433",
"5  c #2E3230",
"6  c #323532",
"7  c #471D39",
"8  c #4F1D3B",
"9  c #4F1E3A",
"0  c #571D3D",
"q  c #5E1D3E",
"w  c #412234",
"e  c #472735",
"r  c #4C2336",
"t  c #4F2636",
"y  c #512A36",
"u  c #54203A",
"i  c #5E2C38",
"p  c #612539",
"a  c #24521F",
"s  c #255F1B",
"d  c #25591D",
"f  c #255D1D",
"g  c #295A1E",
"h  c #1E621E",
"j  c #17731C",
"k  c #266C17",
"l  c #266D17",
"z  c #25601B",
"x  c #22671B",
"c  c #20651C",
"v  c #2A611C",
"b  c #2E631D",
"n  c #266919",
"m  c #277315",
"M  c #277913",
"N  c #227C18",
"B  c #307D14",
"V  c #39731A",
"C  c #397919",
"Z  c #0D502B",
"A  c #0E502B",
"S  c #234623",
"D  c #234125",
"F  c #234225",
"G  c #234524",
"H  c #284724",
"J  c #244C21",
"K  c #244F20",
"L  c #284D22",
"P  c #364D27",
"I  c #35402B",
"U  c #36412C",
"Y  c #3F4F28",
"T  c #3F4F29",
"R  c #2E5621",
"E  c #3F5028",
"W  c #3F5029",
"Q  c #0B6525",
"!  c #0C6526",
"~  c #0F6922",
"^  c #076029",
"/  c #405C24",
"(  c #455F25",
")  c #405129",
"_  c #445828",
"`  c #4B5D2C",
"'  c #496026",
"]  c #4F6825",
"[  c #537024",
"{  c #547124",
"}  c #6E1C42",
"|  c #7D1C45",
" . c #7A2241",
".. c #8C293F",
"X. c #82343D",
"o. c #8A323E",
"O. c #8C1C49",
"+. c #8D1C49",
"@. c #9C1B4D",
"#. c #A21E4C",
"$. c #8C2344",
"%. c #9B2D44",
"&. c #9B2248",
"*. c #9B3940",
"=. c #A02C42",
"-. c #A12C42",
";. c #A8204B",
":. c #AE224B",
">. c #AE234B",
",. c #A8204C",
"<. c #B12C46",
"1. c #B52E45",
"2. c #B62E45",
"3. c #B72E45",
"4. c #BF2E47",
"5. c #B4254A",
"6. c #B23946",
"7. c #C62E49",
"8. c #C92F49",
"9. c #C03749",
"0. c #CC3048",
"q. c #C8344A",
"w. c #C9344A",
"e. c #CC374A",
"r. c #C9384A",
"t. c #CB384A",
"y. c #D03749",
"u. c #D53A49",
"i. c #D83D49",
"p. c #CB4546",
"a. c #DB4049",
"s. c #DE4349",
"d. c #E14649",
"f. c #E1474A",
"g. c #E34A4A",
"h. c #E44A4A",
"j. c #28860F",
"k. c #268014",
"l. c #2D8414",
"z. c #358414",
"x. c #318911",
"c. c #328911",
"v. c #318A11",
"b. c #3B8C12",
"n. c #3A8D12",
"m. c #3C8023",
"M. c #448F14",
"N. c #438418",
"B. c #458A1C",
"V. c #498E19",
"C. c #4E8D1E",
"Z. c #508F1D",
"A. c #5F8D1E",
"S. c #439014",
"D. c #449014",
"F. c #489215",
"G. c #4D9316",
"H. c #519517",
"J. c #569717",
"K. c #579717",
"L. c #569618",
"P. c #5F9A19",
"I. c #68911F",
"U. c #609A19",
"Y. c #649C1A",
"T. c #649C1B",
"R. c #689D1B",
"E. c #699D1B",
"W. c #699E1B",
"Q. c #6D991F",
"!. c #699D1C",
"~. c #6D9F1C",
"^. c #6E9F1C",
"/. c #72A01D",
"(. c #72A11D",
"). c #75A31F",
"_. c #75A41F",
"`. c #4A8821",
"'. c #5D8022",
"]. c #5E8022",
"[. c #579120",
"{. c #738B3B",
"}. c #799937",
"|. c #7D9B39",
" X c #78A622",
".X c #79A622",
"XX c #7FAC26",
"oX c #7FA035",
"OX c #6A8B7B",
"+X c #85B12B",
"@X c #88B32D",
"#X c #88B42D",
"$X c #8BB62F",
"%X c #91BB34",
"&X c #97C138",
"*X c #97C139",
"=X c #9AC33B",
"-X c #9BC43A",
";X c #9AC43B",
":X c #A4CC42",
">X c #75A885",
",X c #99A9A3",
"<X c #A2C3AF",
"1X c #C7C7CB",
"2X c #DFEBE4",
"3X c #E0EBE4",
/* pixels */
"                                                                                                    ",
"                                                                                                    ",
"                                                                                                    ",
"                                                                                                    ",
"                                                                                                    ",
"                                                                                                    ",
"                                                                                                    ",
"                                                                                                    ",
"                                                                                                    ",
"                2 2 2 2           o 2 2 2 2 2 1 2 2             2 2 2 2 2                           ",
"                4 4 4 4 3         - * * * * * * * * *         ; * * * * * *                         ",
"            o y h.h.h.h.X.o     o I.(.(.(.(.(.(.(.(.( o     o ].(.(.(.(.(.' o                       ",
"            o t i.i.i.i.%.q o o o _ ' ' ' ' ' ' ' ' < O o o o ) ' ' ' ' ' < o                       ",
"            o r 0.0.0.0.5.@.o o o o o o 1 O O 1 1 O O O o o o o 2 2 o o o o o                       ",
"                o o + @.q o @.>.0.f.h.h.h.f.0.a.h.0.0.0.0.0.8.d.a.0.a.h.h.h.h.o o                   ",
"                p u 9 } 7 o }  ...9.r.r.r.r.0.w.r.0.0.0.0.0.8.w.e.0.w.r.r.6.*.o O                   ",
"            o r 0.:.O.o o o o o o O.@.@.@.#.0.>.@.8.0.0.0.0.0.;.;.w.>.@.@.q O 1 O                   ",
"            o y f.y.<.o 0 O.O.&.2.7.7.7.7.7.0.8.8.0.0.0.0.0.0.w.q.0.8.7.7.7.2.1 O                   ",
"            o y h.u.2.o 8 | | $.-.-.-.-.-.-.-.-.-.-.-.-.-.%.-.-.-.-.-.%.%.=...O o                   ",
"            o y h.u.2.o o o o o o o o o o o o o O O O X O O . O 2 2 2 1 O O + O o                   ",
"            o y h.o.w o H k k k k k c Z ,X1X1X1X1X1XOXZ x h Z ,X1X1X1X1X1XOXZ k d o                 ",
"            o e p.i o $ g c.c.c.c.c.k.Q <X3X3X3X3X3X>X! l.N ! <X2X2X2X2X2X>XQ c.v o                 ",
"                o o $ j.G.(.(.(.(.(.U.j.~ ^ ^ ^ Z Q j j.E.J.j.~ ^ ^ ^ Z ^ j j.(.{ o                 ",
"                  o % J.U.(.(.(.(.(.~.J.C.`.`.`.`.`.Z.J.^.E.J.Z.`.`.`.`.`.H.J.(.{ o                 ",
"                  o * (.(.(.(.(. X/.(.(.(.(.(.(.~.~._.~.(.(.(.(.(.(.(.(.(.(.(.(.{ o                 ",
"                  . * (.(.(.(.(.~./.L.^ ^ ^ ^ ^ ^ Q ^ ^ ^ ^ ^ ^ ^ ^ ^ ^ ^ m.(.(.{ o                 ",
"                  o * (.(.(.(.(./.H.V.m.m.m.m.m.m.m.m.m.m.m.m.m.m.m.m.m.m.B.G.(.{ o                 ",
"                  . * /././.(.(./.x.n.(.(.(.(.(. X~.~._.(.(.(.(.(.(.(.(.(.G.j.(.{ o                 ",
"                  o o * * * c.F./.!.!.(.(.(.(.(.(.c.c.c.v.c.v.v.D.(.(.(.(.^.E.(.{ o                 ",
"                  D H Y ) ) z V L.~.(.(.(.(.(.(.(.S.S.M.S.D.D.S.G.(.(.(.(.T.J.{ / G                 ",
"                o s c.(.(.(.# H j.!.(.(.(.(.(.(.(.(.(.(.(.(.(.(.(.(.(.(.(.G.j.1 S j.@ o             ",
"                o s c.(.(.(.{ A.P.(.(.(.(.(.(.(.(.(.(.(.(.(.(.(.(.(.H.n.n.b > k M k.$ o             ",
"                o s c.(.(.(.(.(.(.(.(.(.(.(.(.(.(.(.(.(.(.(.(.(.(.(.N.k k a > j.j.j.$ o             ",
"                o s c.(.(.(.(.(.(.(.(.(.(.(.(.(.(.(.(.(.(.(.(.(.(.(.E 1 o a j.j.j.j.@ o             ",
"                  D J D.S.S.(.(.(.(.(.(.(._.%X%X%X%X%X%X%X%X%X%X#X(.'.] o a j.j.k G                 ",
"                  o @ M M M I.I.I.I.Q.(. XXX:X:X:X:X:X:X:X:X:X:X-X X_.I.o J M M s o                 ",
"                      o o o o o X X I (.*X:X:X:X:X:X:X:X:X:X:X:X:X:X+XI.1 O o o o                   ",
"                      o o . o = a ' [ (.*X:X:X:X:X:X:X:X:X:X:X:X:X:X+XI.O 1 . o                     ",
"                            o G j.T.(.(.*X:X:X:X:X:X:X:X:X:X:X:X:X:X+XI.1 .                         ",
"                            o G l.!.(.(.*X:X:X:X:X:X:X:X:X:X:X:X:X:X+XI.O .                         ",
"                            o G j.E.(.(.#X%X%X|.{.%X;X:X:X:X:X:X:X:X+XI.o o                         ",
"                            o G j.T.(.(.(.(.(.E o (.$X:X:X:X:X:X:X:X+XI.o o                         ",
"                                @ B v.v.T.(.(.E o * 5 6 6 `  X-X*X X_.E.M J o                       ",
"                                X n m j.U.(.(.E 2 . X . o ) '.}.oX(.(.!.n.R o                       ",
"                                  o > l.P.(.(.Y o           o o I (.(.(.(.' o                       ",
"                                      > , I I *             o d C (.(.(.(.' o                       ",
"                                      o o o o               o s z.E.~.(.(.' o                       ",
"                                                              o > j.L.(.(.' o                       ",
"                                                                $ D P E E I                         ",
"                                                                  1 o o o o                         "
};
