/* XPM */
static char *_219ae0647d445cdefe5a5e636c118f5B35ePYVpzOlEVujF[] = {
/* columns rows colors chars-per-pixel */
"50 50 182 2 ",
"   c None",
".  c #201E30",
"X  c #201F30",
"o  c #211F30",
"O  c #221E30",
"+  c #221F30",
"@  c #311E34",
"#  c #301F34",
"$  c #22262E",
"%  c #22292C",
"&  c #222C2C",
"*  c #262E2D",
"=  c #292C2E",
"-  c #2B2E2E",
";  c #2B2F2E",
":  c #223D27",
">  c #233329",
",  c #22332A",
"<  c #243729",
"1  c #233828",
"2  c #233928",
"3  c #273A29",
"4  c #30372D",
"5  c #343E2B",
"6  c #353F2B",
"7  c #31392C",
"8  c #323A2D",
"9  c #202030",
"0  c #222030",
"q  c #332033",
"w  c #372133",
"e  c #382333",
"r  c #392433",
"t  c #401E37",
"y  c #471D39",
"u  c #5E1D3E",
"i  c #432135",
"p  c #432235",
"a  c #4C2336",
"s  c #4E2536",
"d  c #482835",
"f  c #4E2936",
"g  c #512936",
"h  c #522936",
"j  c #512A36",
"k  c #67213D",
"l  c #76273C",
"z  c #752F3B",
"x  c #24521F",
"c  c #255F1B",
"v  c #255D1C",
"b  c #295A1E",
"n  c #1D6D1B",
"m  c #17731C",
"M  c #1F701A",
"N  c #266C17",
"B  c #266D17",
"V  c #25601B",
"C  c #266619",
"Z  c #2F631D",
"A  c #33641E",
"S  c #237417",
"D  c #277913",
"F  c #2B7F1A",
"G  c #0A582A",
"H  c #0B582B",
"J  c #234524",
"K  c #224624",
"L  c #234B22",
"P  c #234C21",
"I  c #35402B",
"U  c #38432A",
"Y  c #3A482A",
"T  c #3F4F28",
"R  c #295420",
"E  c #3F5028",
"W  c #3F5029",
"Q  c #0F6922",
"!  c #076029",
"~  c #106922",
"^  c #42771C",
"/  c #4B7A1E",
"(  c #405129",
")  c #496026",
"_  c #4A6724",
"`  c #50662C",
"'  c #537024",
"]  c #547024",
"[  c #547124",
"{  c #6E1C42",
"}  c #7A2241",
"|  c #8C293F",
" . c #82343D",
".. c #8C1C49",
"X. c #8D1C49",
"o. c #9C1B4D",
"O. c #A21E4C",
"+. c #A22B45",
"@. c #A8204B",
"#. c #AE224B",
"$. c #AE234B",
"%. c #A92449",
"&. c #A8204C",
"*. c #B62E45",
"=. c #B72E45",
"-. c #A13344",
";. c #B33F43",
":. c #B7314A",
">. c #C62D49",
",. c #C0324B",
"<. c #C1324B",
"1. c #C3324A",
"2. c #C3324B",
"3. c #C4314A",
"4. c #CB3048",
"5. c #CC3048",
"6. c #D53948",
"7. c #D53A49",
"8. c #DB4049",
"9. c #DE4349",
"0. c #E1474A",
"q. c #E34A4A",
"w. c #E44A4A",
"e. c #28860F",
"r. c #308417",
"t. c #398017",
"y. c #318911",
"u. c #318A11",
"i. c #368B11",
"p. c #348813",
"a. c #3B8C12",
"s. c #3A8D12",
"d. c #3C8023",
"f. c #478C1B",
"g. c #439014",
"h. c #489214",
"j. c #489215",
"k. c #4D9316",
"l. c #4B9118",
"z. c #569717",
"x. c #579717",
"c. c #569718",
"v. c #5A921A",
"b. c #59931E",
"n. c #5B951D",
"m. c #5F9A19",
"M. c #68911F",
"N. c #68971D",
"B. c #609A19",
"V. c #649C1A",
"C. c #64991F",
"Z. c #699E1B",
"A. c #6D991F",
"S. c #699D1C",
"D. c #6B9D1E",
"F. c #6D9F1C",
"G. c #72A11D",
"H. c #75A41F",
"J. c #4A8821",
"K. c #5E8121",
"L. c #5E8022",
"P. c #579120",
"I. c #628821",
"U. c #709C20",
"Y. c #738B3B",
"T. c #779634",
"R. c #78A622",
"E. c #7CA924",
"W. c #7FAB26",
"Q. c #68A076",
"!. c #85B12B",
"~. c #8EB931",
"^. c #97C138",
"/. c #97C139",
"(. c #9AC43B",
"). c #A4CC42",
"_. c #769D87",
"`. c #94BBA0",
"'. c #B5C5BD",
"]. c #C1D7C9",
"[. c #E2E3E5",
"{. c #E3E3E5",
/* pixels */
"                                                                                                    ",
"                                                                                                    ",
"                                                                                                    ",
"                                                                                                    ",
"                                                                                                    ",
"                                                                                                    ",
"                o o o o           0 o o o o o o 0 o           o o o o o o                           ",
"                g j j j d         7 6 6 6 6 6 6 6 6 7         6 6 6 6 6 I 7                         ",
"            o j w.w.w.w. .o     o M.G.G.G.G.G.G.G.G.) o     o L.G.G.G.G.G.) o                       ",
"            o s 6.6.6.6.+.{ 0 o o Y E W W T ( ( W W 4 o o o o 6 ( ( T T W 4 o                       ",
"            o i *.*.*.>.%.X.# q w r r r r r r r r w w w w w w r w w r w r r r                       ",
"                o o # o.u o o.$.5.0.w.w.w.0.5.7.w.5.5.5.5.5.5.9.9.5.9.w.w.w.q.o o                   ",
"              i l k u u t o u k l :.,.,.,.,.5.>.,.5.5.5.5.5.5.2.2.5.2.,.,.-. .o o                   ",
"            o a 5.#...o o o o o o ..o.o.o.O.5.$.o.5.5.5.5.5.5.%.&.5.#.o.o.u o o o                   ",
"            o j w.6.*.0 u o.o.$.5.5.5.5.5.5.5.5.5.5.5.5.5.5.5.5.5.5.5.5.5.5.5.o O                   ",
"            o j w.6.=.0 y { { } | | | | | | | | | | | | | | | | | | | | | | | o O                   ",
"            o j w.6.*.o o o o 0 o o o o 0 0 0 0 0 0 0 0 X o o o o o o o o o o o o                   ",
"            o j w.z w o P D D D D D M G '.{.[.[.[.[._.G S n H '.{.{.{.{.{._.G D c o                 ",
"            o f ;.j o 1 Z a.a.a.a.a.r.Q `.].].].].].Q.Q p.F Q `.].].].].].Q.Q a.A o                 ",
"                o o & e.k.G.G.G.G.G.B.e.~ ! ! ! ! ! m e.S.c.e.Q ! ! ! ! ! m e.G.] o                 ",
"                  o * m.Z.G.G.G.G.G.Z.B.P.P.P.P.P.b.b.m.G.S.m.b.P.P.P.P.P.n.m.G.] 0                 ",
"                  o = G.G.G.G.G.G.G.Z.C.C.C.C.C.C.C.C.C.C.C.C.C.C.C.C.C.C.S.G.G.] 0                 ",
"                  o ; G.G.G.G.G.G.G.b.G ! ! ! ! ! ! ! ! ! ! ! ! ! ! ! ! ! d.G.G.] 0                 ",
"                  o ; G.G.G.G.G.G.h.l.J.J.J.J.J.J.J.J.J.J.J.J.J.J.J.J.J.J.f.g.G.] 0                 ",
"                  o = G.G.G.G.G.G.y.s.G.G.G.G.G.G.G.G.G.G.G.G.G.G.G.G.G.G.k.e.G.] o                 ",
"                  o ; G.G.G.G.G.G.G.G.G.G.G.G.G.G.e.e.e.e.e.e.e.a.G.G.G.G.G.G.G.] o                 ",
"                    = ) / k.G.G.G.G.G.G.G.G.G.G.G.k.k.k.k.k.k.k.c.G.G.G.G.m.k.) ( o                 ",
"                      o x e.G.G.G.G.G.G.G.G.G.G.G.G.G.G.G.G.G.G.G.G.G.G.G.k.e.o o                   ",
"                        % & u.u.y.V.G.G.G.G.G.G.G.G.G.G.G.G.G.G.G.G.j.u.u.b &                       ",
"                          0 V V c N.G.G.G.G.G.G.G.G.G.G.G.G.G.G.G.G.^ V V K 0                       ",
"                            o o 0 M.G.G.G.G.G.G.G.G.G.G.G.G.G.G.G.G.W o o X                         ",
"                              0 o M.G.G.G.R././././././././././.~.G.W o                             ",
"                              = 6 A.G.G.E.!.).).).).).).).).).).(.E.` U                             ",
"                            o ( G.G.G.G./.).).).).).).).).).).).).).!.M.o o                         ",
"                          $ ] L.G.G.G.G./.).).).).).).).).).).).).).!.M.o o 0                       ",
"                        % & G.G.G.G.G.G./.).).).).).).).).).).).).).!.M.o $ &                       ",
"                      o P e.G.G.G.G.G.G./.).).).).).).).).).).).).).!.M.0 P e.X o                   ",
"                      o x e.G.V.k._ ' G./.).).).).).).).).).).).).).!.M.0 x e.0 o                   ",
"                      o x e.G.x.e.& 6 G./.).).).).).).).).).).).).).!.M.0 x e.0 o                   ",
"                      $ x e.e.V o M.G.G.G.R.).).).).).).).).).)./.G.G.G.G.) 0 0 O                   ",
"                      0 K c V P K N.G.G.G.U.Y.Y.Y.Y.Y.Y.Y.Y.Y.Y.T.G.G.G.G.) o 0                     ",
"                        X o o L e.S.G.G.G.M.o o o o o o o o o o 6 G.G.G.G.) o                       ",
"                            o K e.S.G.G.G.M.o               o C t.G.G.Z.u.R o                       ",
"                            o K e.S.G.G.I.' o               o B i.B.B.z.B L o                       ",
"                            o J e.S.G.G.I o                 o B e.e.e.D o o                         ",
"                            o J e.S.V.a.3 o                   < 1 1 1 ,                             ",
"                            o J e.B.v.D : o                   o o 0 0 9                             ",
"                            o J e.e.B o                                                             ",
"                              > J J K                                                               ",
"                                o o o                                                               "
};
