/* XPM */
static char *caea81b74e254635df9749117215b01f0QaMhAw16KvU28bf[] = {
/* columns rows colors chars-per-pixel */
"50 50 168 2 ",
"   c None",
".  c #233B1D",
"X  c #211F2F",
"o  c #211F30",
"O  c #311F34",
"+  c #222222",
"@  c #272A22",
"#  c #2E2B23",
"$  c #22232B",
"%  c #232C2C",
"&  c #2B2E2D",
"*  c #302B23",
"=  c #3C2F23",
"-  c #233429",
";  c #243928",
":  c #263623",
">  c #3D3625",
",  c #30372D",
"<  c #343E2B",
"1  c #323924",
"2  c #212030",
"3  c #372133",
"4  c #392433",
"5  c #441E38",
"6  c #5E1D3E",
"7  c #483824",
"8  c #553D25",
"9  c #4B2936",
"0  c #482336",
"q  c #512A36",
"w  c #67213D",
"e  c #762A3C",
"r  c #23411C",
"t  c #24521F",
"y  c #255D1C",
"u  c #1A721B",
"i  c #1D6D1B",
"p  c #266D17",
"a  c #25611B",
"s  c #2F631D",
"d  c #277913",
"f  c #277A19",
"g  c #33641E",
"h  c #0A582A",
"j  c #234524",
"k  c #234C22",
"l  c #3C4B21",
"z  c #394328",
"x  c #374327",
"c  c #3F5028",
"v  c #345D32",
"b  c #295420",
"n  c #0F6922",
"m  c #076029",
"M  c #106922",
"N  c #4E691F",
"B  c #54711E",
"V  c #4B7A1E",
"C  c #44492C",
"Z  c #584C29",
"A  c #405120",
"S  c #455A20",
"D  c #4B5728",
"F  c #5E5829",
"G  c #6E4A27",
"H  c #624426",
"J  c #66562B",
"K  c #7B5227",
"L  c #496025",
"P  c #52652A",
"I  c #547124",
"U  c #5B6C30",
"Y  c #507236",
"T  c #77642D",
"R  c #627637",
"E  c #6E1C42",
"W  c #7A2241",
"Q  c #8C293F",
"!  c #82343D",
"~  c #955F29",
"^  c #885828",
"/  c #836B2E",
"(  c #8E7730",
")  c #99752E",
"_  c #AE6C2A",
"`  c #A2652A",
"'  c #BB732B",
"]  c #BB7B2D",
"[  c #C87A2C",
"{  c #8C1C49",
"}  c #9C1B4D",
"|  c #A21E4C",
" . c #AC224B",
".. c #A22B45",
"X. c #B72E45",
"o. c #B53847",
"O. c #A13344",
"+. c #C1324B",
"@. c #CC3048",
"#. c #D53948",
"$. c #C62D49",
"%. c #DD4249",
"&. c #E44A4A",
"*. c #E1474A",
"=. c #28860F",
"-. c #328A11",
";. c #3B8C12",
":. c #358217",
">. c #3C8023",
",. c #5C811E",
"<. c #4D9316",
"1. c #479116",
"2. c #579717",
"3. c #5A941D",
"4. c #5F9A19",
"5. c #569718",
"6. c #478C1B",
"7. c #68921E",
"8. c #63991E",
"9. c #6B9C1C",
"0. c #63891F",
"q. c #72A11D",
"w. c #4A8821",
"e. c #5E8022",
"r. c #579120",
"t. c #709C20",
"y. c #738B3B",
"u. c #738C36",
"i. c #7A9736",
"p. c #67852B",
"a. c #4FAA46",
"s. c #60AF42",
"d. c #68A076",
"f. c #9B8132",
"g. c #A88A34",
"h. c #A88733",
"j. c #B69635",
"k. c #85B12B",
"l. c #8DB13A",
"z. c #D4802D",
"x. c #C39D36",
"c. c #E1872D",
"v. c #EE8E2E",
"b. c #EF922F",
"n. c #EF9630",
"m. c #E59A32",
"M. c #F19D32",
"N. c #D1AB38",
"B. c #DBA637",
"V. c #DFB63A",
"C. c #C4A137",
"Z. c #F3A935",
"A. c #F2A534",
"S. c #F5B037",
"D. c #F5B538",
"F. c #F8BF3B",
"G. c #97DA3F",
"H. c #97C138",
"J. c #ECC03C",
"K. c #FACB3E",
"L. c #F9C73D",
"P. c #9CC140",
"I. c #A4CC42",
"U. c #769D87",
"Y. c #94BBA0",
"T. c #B5C5BD",
"R. c #C1D7C9",
"E. c #E3E3E5",
/* pixels */
"                                                                                                    ",
"                                                                                                    ",
"                                                                                                    ",
"                                                                                                    ",
"                                                                                                    ",
"                                                                                                    ",
"                o o o o           $ o 2 o o o o 2 2           o o o o 2 2                           ",
"                q q q q 9         , < < < z < < < z ,         < < x < < x <                         ",
"            o q &.&.&.&.! 2     o 7.q.t.q.q.q.t.t.t.L 2     2 e.t.q.q.q.q.L 2                       ",
"            o 0 #.#.#.#...E 2 o o c c c c c c c C A , 2 2 2 2 < A C A C c , 2                       ",
"            o 0 X.X.X.$. .{ O 3 4 4 4 4 4 4 4 4 4 4 4 4 3 3 3 4 4 4 4 4 4 4 4                       ",
"                o o 3 } 6 o }  .$.*.&.&.&.&.@.%.&.@.@.@.@.@.@.%.*.@.#.&.&.&.&.2 o                   ",
"              0 e w 6 6 5 o 6 w W o.X.+.X.+.@.@.+.@.@.@.@.@.@.+.+.@.+.+.+.O.! o o                   ",
"            2 0 @. .{ o o o o o 2 { } } } | @. .} @.@.@.@.@.@. . .@. .} } 6 o o o                   ",
"            o q &.#.X.o 6 } }  .@.@.@.@.@.@.@.@.@.@.@.@.@.@.@.@.@.@.@.@.@.@.@.o o                   ",
"            o q &.#.X.o 5 E E W Q Q Q Q Q Q Q Q Q Q Q Q Q Q Q Q Q Q Q Q Q Q Q o o                   ",
"            2 q &.#.X.o o o 2 2 2 o o o 2 2 2 2 2 2 2 2 2 o o o o o o o 2 o 2 2 2                   ",
"            o q &.e 3 o k d d d f f p h T.E.E.E.E.E.U.h f M h T.E.E.E.E.E.U.h f y 2                 ",
"            o 9 o.q 2 ; s ;.;.;.;.;.:.n Y.R.R.R.R.R.d.n ;.f M Y.R.R.R.R.R.d.n ;.g o                 ",
"                2 $ % =.<.q.q.q.q.q.4.=.M m m m m m u =.9.5.=.M m m m m m u =.t.I o                 ",
"                  2 - 8.9.q.q.q.q.q.9.4.r.r.r.r.r.r.r.4.q.9.8.3.r.r.r.r.3.5.4.q.I 2                 ",
"                  2 & q.q.q.q.q.q.q.9.8.8.8.8.8.8.8.8.8.8.8.8.8.8.8.8.8.8.9.q.q.I o                 ",
"                  o & q.q.q.q.q.q.q.r.m m m m m m m m m m m m m m m m m m >.q.q.I o                 ",
"                  o & q.q.q.q.q.q.1.<.w.w.w.w.w.w.w.w.w.w.w.w.w.w.w.w.w.w.6.1.q.I o                 ",
"                  o & q.q.q.q.q.q.-.;.q.q.q.q.q.q.q.q.q.q.q.q.q.q.q.q.q.q.<.=.q.I o                 ",
"                  o & q.q.q.q.q.q.q.q.q.q.q.q.q.q.=.=.=.=.=.=.=.;.q.q.q.q.q.q.q.I o                 ",
"                    & L V <.q.q.q.q.q.q.q.q.q.q.q.5.<.<.<.<.<.<.2.q.q.q.9.B B A @ o                 ",
"                      o t =.q.q.q.q.q.q.7.B S ,.q.q.t.q.q.q.q.q.7.B S x @ + * J f.7                 ",
"                        % % -.-.-.9.q.7.+ * * N q.q.q.9.e.I l @ + * C / g.V.K.K.K.j.T               ",
"                          $ a y a 9.9.S ' v.K l 9.S 1 + + > T f.C.J.L.L.K.K.K.K.K.L.B.+             ",
"                            X X X 7.q.@ _ _ * * 9.@ J j.J.K.L.K.K.K.K.K.K.L.Z.A.n.v.n.*             ",
"                              X X 7.q.l G K + N.> X ( K.K.K.K.K.K.D.A.M.v.v.v.v.v.v.>               ",
"                            + + @ S l @ + * + V.N.V.K.K.F.S.A.b.v.v.v.v.v.v.v.v.[ ` 8               ",
"                  + +     7 ' + X 7 Z > N.K.> h.D.A.M.b.v.v.v.v.v.v.v.c._ ^ 8 * + @                 ",
"                    ` ~ : D ~ h.m.Z.x.# K.K.T K b.[ ~ z.v.v.v.[ ~ G 7 X + + $                       ",
"                    7 F G.I.z ) S.D.z.# j.g.Z 7 z.+ + ^ K 8 * @ @ D N B 2 $ %                       ",
"                      + s.a.v Z ] f.G + + + 7 + G k.U X < U u.l.I.I.k.7.$ b =.o o                   ",
"                      = Y v J z.+ + # I P = v.= 7 R P.P.I.I.I.I.I.I.k.7.o t =.2 o                   ",
"                    + ' K . D G + $ 1 q.l.X c.v.K P I.I.I.I.I.I.I.I.k.7.o t =.o o                   ",
"                      = r =.=.. + 0.q.q.q.l / 8 # * I.I.I.I.I.I.l.q.q.q.q.L o o o                   ",
"                      + : a a t k 8.q.q.q.t.C & C R y.y.y.y.y.y.i.q.q.q.q.L o 2                     ",
"                        o o o j =.9.q.q.q.7.o o 2 o o 2 o 2 2 2 x q.q.q.q.L o                       ",
"                            o j =.4.q.q.q.7.o               o a f q.q.9.-.b o                       ",
"                            o j =.9.q.q.0.I o               o p ;.8.8.2.p k o                       ",
"                            o j =.9.q.q.z 2                 o p =.=.=.d o o                         ",
"                            o j =.9.8.;.; 2                   ; ; ; ; :                             ",
"                            o j =.8.3.d ; 2                   o o 2 X X                             ",
"                            o j =.=.p 2                                                             ",
"                              - j j j                                                               ",
"                                o o o                                                               "
};
