/* XPM */
static char *_cd733fc3b6347e0ad7ae84081b9ea94fSl2rxIFKtz4NPtc[] = {
/* columns rows colors chars-per-pixel */
"50 50 64 1 ",
"  c None",
". c gray13",
"X c #222222",
"o c #232222",
"O c #232323",
"+ c #2F2923",
"@ c #2F2C24",
"# c #392C22",
"$ c #3C2F23",
"% c #273226",
"& c #3A3525",
"* c #3D3726",
"= c #3E3726",
"- c #303926",
"; c #503A24",
": c #513A25",
"> c #553D25",
", c #563D25",
"< c #2C432B",
"1 c #3F5029",
"2 c #4A4227",
"3 c #4A4228",
"4 c #504226",
"5 c #504F2B",
"6 c #584C29",
"7 c #5A4D2A",
"8 c #5E5929",
"9 c #6E4A27",
"0 c #704B26",
"q c #795027",
"w c #75642C",
"e c #815427",
"r c #885828",
"t c #9D632A",
"y c #8E7630",
"u c #A2652A",
"i c #AE6C2A",
"p c #BA732B",
"a c #BB732B",
"s c #BD7E2E",
"d c #C87A2C",
"f c #41853D",
"g c #7AAC37",
"h c #4BA747",
"j c #BE822F",
"k c #A38632",
"l c #A98C34",
"z c #D3802D",
"x c #D4802C",
"c c #C08D32",
"v c #C29634",
"b c #E1872D",
"n c #EE8E2E",
"m c #F19D32",
"M c #C3A137",
"N c #C4A037",
"B c #C4A137",
"V c #DFB63A",
"C c #F2A534",
"Z c #F5B438",
"A c #F7BC3A",
"S c #97DA3F",
"D c #F9CA3E",
"F c #FACB3E",
/* pixels */
"                       OXX.                       ",
"                      XkBato                      ",
"                     &*BFnd&#                     ",
"                    XyFFFnnnro                    ",
"                    XyFFFnnnrX                    ",
"                    XyFFFnnnrX                    ",
"                    XyFFFnnnrX                    ",
"                    XyFFFnnnrX                    ",
"                    XyFFFnnnrX                    ",
"                    XyFFFnnnrX                    ",
"                    XyFFFnnnrX                    ",
"                    XyFFFnnnrX                    ",
"                    XyFFFnnnrX                    ",
"                    XyFFFnnnrX                    ",
"                    XyFFFnnnrX                    ",
"                    XyFFFnnnrX                    ",
"                    XyFFFnnnrX                    ",
"                    XyFFFnnnrX                    ",
"                    XyFFFnnnrX                    ",
"                    XyFFFnnnrX                    ",
"                    XyFFFnnnrX                    ",
"                    XyFFFnnnrX                    ",
"                    XyFFFnnnrX                    ",
"                    XyFFFnnnrX                    ",
"                    XyFFFnnnrX                    ",
"                    XXXBFnaXXX                    ",
"                    XXXBFnaXXX                    ",
"                     XXBFnaXX                     ",
"                 XXOowlVFnbu0XooO                 ",
"                XXoXXyFFFnnnrXXXXO                ",
"                XXxuX@***$&#+XiaXO                ",
"                XXnd>$X366;o&>dzXO                ",
"                XXnnnrXBFFvOrnnzXO                ",
"                 Xrrr>XBFFBO>rreX                 ",
"                  XXXXXMFFBOXXXX                  ",
"                     XX2652OX                     ",
"                     XX=;#@..                     ",
"                     XXBDnaXO                     ",
"                     XXcZCj.X                     ",
"                     XXanDM.X                     ",
"                    OXXvAmsXXX                    ",
"                    XXXMFnaXXX                    ",
"                    Xrn>XX>nrX                    ",
"                    Xqa85<5pqX                    ",
"                     XogShf.X                     ",
"                     XogShf.X                     ",
"                     oogShf.X                     ",
"                    Xex2-%5zeX                    ",
"                    X9p:XX;p9X                    ",
"                    XXX    XXX                    "
};
