/* XPM */
static char *_80cd367190b4bf0aa16d1a43492de21kHn6UMNXQWJ93U11[] = {
/* columns rows colors chars-per-pixel */
"50 50 119 2 ",
"   c None",
".  c #201E30",
"X  c #201F30",
"o  c #211F30",
"O  c #221E30",
"+  c #202030",
"@  c #222030",
"#  c #222031",
"$  c #262435",
"%  c #282638",
"&  c #28263A",
"*  c #292839",
"=  c #2D2D3D",
"-  c #2E2C3D",
";  c #2D2D3E",
":  c #2E2D3E",
">  c #2F2E40",
",  c #302E40",
"<  c #313143",
"1  c #333244",
"2  c #343345",
"3  c #353544",
"4  c #353748",
"5  c #363648",
"6  c #373748",
"7  c #373749",
"8  c #383748",
"9  c #39384A",
"0  c #393A4B",
"q  c #393A4C",
"w  c #3C3D4D",
"e  c #3D3E4F",
"r  c #3D3E50",
"t  c #3E3E50",
"y  c #3E3F51",
"u  c #3F4053",
"i  c #404052",
"p  c #414153",
"a  c #414252",
"s  c #434353",
"d  c #414453",
"f  c #434456",
"g  c #464857",
"h  c #464957",
"j  c #464558",
"k  c #48475B",
"l  c #48495C",
"z  c #4B4E5D",
"x  c #494C5E",
"c  c #4A4C5E",
"v  c #4B4D5F",
"b  c #4B4D60",
"n  c #4F5163",
"m  c #4E5164",
"M  c #505264",
"N  c #515366",
"B  c #525366",
"V  c #535664",
"C  c #525566",
"Z  c #565966",
"A  c #565967",
"S  c #565A67",
"D  c #525568",
"F  c #575A69",
"G  c #585B6A",
"H  c #585B6E",
"J  c #595B6E",
"K  c #5B5E6C",
"L  c #5A5E70",
"P  c #5A5E71",
"I  c #5D6072",
"U  c #5E6072",
"Y  c #5E6172",
"T  c #5F6172",
"R  c #5F6471",
"E  c #5E6376",
"W  c #5F6376",
"Q  c #606371",
"!  c #606372",
"~  c #616476",
"^  c #616576",
"/  c #626576",
"(  c #646777",
")  c #636877",
"_  c #62677A",
"`  c #646879",
"'  c #666A7A",
"]  c #676C7C",
"[  c #666C7E",
"{  c #6C717F",
"}  c #6E7281",
"|  c #6E7381",
" . c #6E7382",
".. c #6F7585",
"X. c #6F7685",
"o. c #717585",
"O. c #747A87",
"+. c #767B8A",
"@. c #777F8D",
"#. c #787F8C",
"$. c #787E8D",
"%. c #787F8D",
"&. c #7A808B",
"*. c #79808C",
"=. c #7E8392",
"-. c #7C8491",
";. c #7D8491",
":. c #808894",
">. c #808895",
",. c #858D99",
"<. c #888F9C",
"1. c #8F98A3",
"2. c #949EA8",
"3. c #959EA9",
"4. c #9FA9B3",
"5. c #9FAAB3",
"6. c #AEBAC2",
"7. c #AFBBC2",
"8. c #AFBBC3",
/* pixels */
"                                                                                                    ",
"                                                                                                    ",
"                                                                                                    ",
"                                                                                                    ",
"                                                                                                    ",
"                . o o o o                             o o o o o                                     ",
"                . o q 5 , &                         - q q q o o                                     ",
"                o o _ H k > o     o o o o o o     o q _ _ _ o o                                     ",
"                    0 i k , o # p ! R R c c c 5 # c b N f q                                         ",
"                    o , k = o o h ,.,.,._ _ _ 0 o _ H k > o                                         ",
"                        o R ,._ _ _ _ _ _ _ _ _ _ _ c o                                             ",
"                      3 h ` $._ _ _ _ _ _ _ _ _ _ _ m , &                                           ",
"                    o h ,..._ _ _ _ _ _ _ _ _ _ _ _ H k > o                                         ",
"                    o = h t q _ _ _ c q 0 0 0 0 0 _ W H 5 o                                         ",
"                    o o o o o _ _ _ q o o o o o o _ _ _ q o                                         ",
"                    o o o 8 k _ _ _ N k o o o 0 k _ _ _ q o                                         ",
"                    o * 0 l N _ _ _ H N q q q x m _ _ _ c q                                         ",
"                    o w _ _ _ _ _ _ _ _ _ _ _ _ _ _ _ _ _ _ o o o o o o o                           ",
"                    o i $.$.$.$..._ _ _ _ _ _ _ _ _ _ _ _ _ o < c c c c t o # @                     ",
"                    o h ,.,.,.,.$._ _ _ _ _ _ _ _ _ _ _ _ _ o q _ _ _ _ c o o o                     ",
"              o o o ,.! o R ,.o h ,..._ _ _ _ _ _ _ _ _ _ _ _ ..,.T k k N _ _ _ o o                 ",
"            = q * o ,.! o R ,.o h ,..._ x c c c x x x c P _ ..$.,.{ T T P H W _ q 8                 ",
"          o 8 _ 0 o ,.! # R ,.o h ,..._ . o o o X o # X c _ ,.,.,.,.,.,.o.k H _ _ c o               ",
"        o c D _ c 0 h V Q $.,.! } ,.F 0 0 8 8 q 8 0 u c P _ ,.,.,.,.,.,.:.{ ! N _ c o               ",
"      o o _ _ _ N k o j ,.,.,.,.,.,.j o k j c j j c N _ _ _ ,.,.,.,.,.,.,.,.P k _ c o               ",
"      . o _ H k ..,.k 8 o o o o o o 0 k _ _ _ _ _ _ _ _ _ _ _ ..,.,.,.,.,.,.W k k B _ q o           ",
"      o o _ H k } ,.k j h = o , < q m ! o...o...........[ _ _ ..,.,.,.,.;.} ` ! k N _ q o           ",
"      o o _ H k } ,.k R ,.j o k N _ @.,.,.,.,.,.,.,.,.,..._ _ ..,.,.,.,.} k } ,.k B _ q o           ",
"    o e b m W } ;.,.<.+.R 5 o H ` $.>.,.,.,.,.,.,.,.,.,.-.$._ ..,.,.,.R o.<.<.,.o.~ N z c o         ",
"    o c _ k P ,.,.,.8.<.k > o _ o.,.,.,.,.,.,.,.,.,.,.,.,.,._ ..,.,.,.k } 8.2.,.,.{ k H _ o o       ",
"    o R ,.k ! ,.,.,.,.2.8.F o _ _ _ *.,.,.,.,.,.,.,.,.,.,.,.# = k k l 8.4.,.,.,.,.} k o.,.o o       ",
"    o ! ,.k ! ,.,.,.,.1.4.O.A c c c [ @.,.,.,.,.,.,.,.,.,.,.o e } ( ! 4.2.,.,.,.,.} k } ,.o o       ",
"    o R ,.k P ,.,.,.,.,.,.4.8.o o o c _ ,.,.,.,.,.,.,.,.,.,.# F 8.3.,.,.,.,.,.,.,.o.k } ,.o o       ",
"    o V ..k T ,.,.,.,.,.,.4.8.o o   5 0 ..@.,.,.,.,.,.,.$...0 i A ;.4.,.,.,.,.,.,.{ l ~ o.o o       ",
"    o c _ k R ,.,.,.,.,.,.4.8.o o   o o _ ..,.,.,.,.,.,..._ j 0 # &.8.,.,.,.,.,.,.| l H _ o o       ",
"      . o _ L k } ,.,.2.8.F o           o q _ _ _ _ _ _ _ _ _ c # *.8.,.,.,.,.,.,.| k H _ o O       ",
"      o o ..~ k o.,.,.2.8.A @           o 8 H m c c c c c x c t : K *.2.1.,.,.,.o.' R n c #         ",
"      o o ,.} k } ,.,.2.8.F o           o , k , o + o o o . o , k < # 8.4.,.,.,.k P ,.g o           ",
"          h G } ` ! ,.2.8.A o             & , 2 0 o o         & : $ # 8.4.,.,.,.k T ,.g o           ",
"          o h ,.P c ,.2.8.A o               o 8 j o o           o o # 8.5.,.,.,.k T ,.h o           ",
"              o c _ k k k , o                 o o o o             . o 8.4.,.R k ,.! o               ",
"              # e c 0 p N f q                   + #               o o <.;.o.P N ! z #               ",
"                o o o q _ _ _ o o                                 o o k k k H _ o o                 ",
"                      = 0 0 0 o o                               o t c H c : 5 0                     ",
"                        o o o o o                               o c _ _ c o o o                     ",
"                                                                o o o o o                           ",
"                                                                + # + +                             ",
"                                                                                                    ",
"                                                                                                    ",
"                                                                                                    "
};
