/* XPM */
static char *ca8f561a9f0542118c9b022587a25ff7w3fnsko5vT0vNDrZ[] = {
/* columns rows colors chars-per-pixel */
"50 51 202 2 ",
"   c None",
".  c #201E30",
"X  c #201F30",
"o  c #211F30",
"O  c #221F30",
"+  c gray13",
"@  c #222121",
"#  c #222221",
"$  c #222222",
"%  c #232322",
"&  c #222223",
"*  c #232323",
"=  c #222225",
"-  c #2F2923",
";  c #2F2C24",
":  c #212029",
">  c #22202D",
",  c #302922",
"<  c #302923",
"1  c #372D24",
"2  c #3B2F23",
"3  c #3C2F23",
"4  c #273226",
"5  c #3D3725",
"6  c #3E3725",
"7  c #3D3726",
"8  c #3E3726",
"9  c #303925",
"0  c #313926",
"q  c #202030",
"w  c #222030",
"e  c #232133",
"r  c #232233",
"t  c #252335",
"y  c #262435",
"u  c #272739",
"i  c #292739",
"p  c #292839",
"a  c #2A293B",
"s  c #2B293B",
"d  c #2C2A3D",
"f  c #2D2B3D",
"g  c #2E2C3D",
"h  c #3D3532",
"j  c #413224",
"k  c #493624",
"l  c #553D25",
"z  c #2C442B",
"x  c #345D33",
"c  c #396D37",
"v  c #4A4227",
"b  c #4A4228",
"n  c #594C29",
"m  c #515129",
"M  c #624426",
"N  c #6E4A26",
"B  c #61422F",
"V  c #734D26",
"C  c #65572B",
"Z  c #795027",
"A  c #7B5127",
"S  c #53622C",
"D  c #73612D",
"F  c #2F2E40",
"G  c #302E40",
"H  c #333141",
"J  c #313042",
"K  c #313143",
"L  c #323142",
"P  c #343345",
"I  c #343446",
"U  c #373648",
"Y  c #373748",
"T  c #373749",
"R  c #38374A",
"E  c #39374A",
"W  c #39384A",
"Q  c #393A4B",
"!  c #3A3A4A",
"~  c #393A4C",
"^  c #3D3D4C",
"/  c #3C3D4F",
"(  c #3E3D50",
")  c #403F53",
"_  c #3F4053",
"`  c #404151",
"'  c #404053",
"]  c #404153",
"[  c #414153",
"{  c #434353",
"}  c #414355",
"|  c #434255",
" . c #434256",
".. c #434456",
"X. c #444455",
"o. c #464857",
"O. c #464957",
"+. c #464558",
"@. c #454759",
"#. c #464659",
"$. c #48475B",
"%. c #474959",
"&. c #474B5C",
"*. c #484A5B",
"=. c #49495C",
"-. c #49495D",
";. c #4B4B5F",
":. c #494C5E",
">. c #4D4D61",
",. c #4C4E61",
"<. c #4D4E61",
"1. c #4E4F63",
"2. c #515265",
"3. c #515366",
"4. c #525366",
"5. c #535664",
"6. c #525566",
"7. c #535569",
"8. c #535669",
"9. c #545669",
"0. c #54576A",
"q. c #55576A",
"w. c #565A6A",
"e. c #57596C",
"r. c #585B6E",
"t. c #595B6E",
"y. c #595D70",
"u. c #5A5D70",
"i. c #5A5E71",
"p. c #5B5F72",
"a. c #5C5F72",
"s. c #5C6073",
"d. c #5F6376",
"f. c #606371",
"g. c #606372",
"h. c #606578",
"j. c #62677A",
"k. c #64697C",
"l. c #676C7C",
"z. c #666C7E",
"x. c #6C717E",
"c. c #6C707F",
"v. c #6C717F",
"b. c #885828",
"n. c #8F5C29",
"m. c #806C2E",
"M. c #86702F",
"N. c #806635",
"B. c #8E7630",
"V. c #A16529",
"C. c #A1652A",
"Z. c #BB732B",
"A. c #BA722C",
"S. c #C77A2C",
"D. c #C87A2C",
"F. c #71B23E",
"G. c #4BA747",
"H. c #9B8132",
"J. c #A88B33",
"K. c #D3802C",
"L. c #D4802C",
"P. c #D4802E",
"I. c #D5882E",
"U. c #D78C2F",
"Y. c #CD9433",
"T. c #C39F37",
"R. c #D79030",
"E. c #E1872D",
"W. c #EE8E2E",
"Q. c #EF922F",
"!. c #EF9630",
"~. c #C3A037",
"^. c #C4A137",
"/. c #DEB63A",
"(. c #DFB63A",
"). c #F4AC36",
"_. c #F5B037",
"`. c #F4B137",
"'. c #F5B438",
"]. c #8FCE3D",
"[. c #ECC03C",
"{. c #F8C03B",
"}. c #F8C33C",
"|. c #F9CA3E",
" X c #FACB3E",
".X c #84CD41",
"XX c #696E80",
"oX c #6A7082",
"OX c #6E7281",
"+X c #6F7585",
"@X c #6F7685",
"#X c #6F7686",
"$X c #707585",
"%X c #737A89",
"&X c #747A88",
"*X c #757C8B",
"=X c #777F8D",
"-X c #787F8C",
";X c #787E8D",
":X c #7C8391",
">X c #818895",
",X c #858D99",
/* pixels */
"                                                                                                    ",
"                                                                                                    ",
"                                                                                                    ",
"                                                                                                    ",
"                                                                                                    ",
"                                                                                                    ",
"                                                                                                    ",
"                                                                                  *                 ",
"                                                                                * M ,               ",
"                                                                                * D.b.              ",
"                                                                            * * + x 4 +             ",
"          o o o o o                             o o o o o                 * A D.c G.F.9 A +         ",
"          o p ~ ~ ~                             G I ~ t o                 + 5 A z .X].m S.- +       ",
"          o K j.j.j.p o     o o w w o o     w p $.q.j.p o   + , j *     + 5 Y.I.8 S 9 *   +         ",
"            u Q #.3.,.&.w T :.:.:.g.g.g.' w w s $.' Q     + 3 L.D.j + + 3 U.{.`.T.A.n.              ",
"              o P $.d.i.o ~ j.j.j.,X,X,X%.o o p $.P o     + N L.D.V.+ 7 5 U.).S.- 5 -               ",
"                o o i.j.j.j.j.j.j.j.j.j.j.j.,Xv.o o         + - < ; n [.m.7 H.< * + +               ",
"                s F i.j.j.j.j.j.j.j.j.j.j.j.;X$X#.^           V b.+ (. X Xv * +                     ",
"              o P $.d.j.j.j.j.j.j.j.j.j.j.j.j.oX,X5.o     + + k E.b.8 /.B.+ +                       ",
"              o ( y.j.j.j.j.j.j.j.j.j.j.j.j.j.k.@X*.o = * l + b.W.'.D 4 + M =                       ",
"              o _ j.j.j.j.j.j.j.j.j.j.j.j.j.j.j.j. .o = C.W.D.Q.'.'. XC 1 E.b.+                     ",
"              o  .j.j.i.o o o o o o ~ j.j.j.o o w o o A.W.W.Q.{.(.v M.b 3 D.D.1                     ",
"              w _ j.j.s.F s X w o F ..j.j.j.F s o o w L.W.!.}. Xm.*   * , Z.5 +                     ",
"          o w q ..j.j.d.#.Q o q o $.3.j.j.j.$.( o o w L.!.}. X XT.+ *   * * +                       ",
"        w E K o ..j.j.d.r.8.:.:.:.r.s.j.$X;Xv.x.g.' o B D  X X^.< *                                 ",
"      o o  .( o  .j.j.j.j.j.j.j.j.j.j.j.;X,X,X,X,X5.o o j  XJ.> +                                   ",
"    o E $.$.$.$.P o a.j.j.j.j.j.j.j.@X,Xo.o ,Xx.> o o  ...w > *                                     ",
"    o ~ $.$.$.$.P o #.=.:.:.:.:.:.j.$X,Xo.o ,Xv.o i F #...w r                                       ",
"    o E $.$.$.$.P o o o o o o o o j.@X,Xo.o ,Xv.o P $.$...o .                                       ",
"    o Q $.$.,.r.=.E r r Q _ :.:.:.Q w.,XoXg.o.*.~ ( $.$...o o                                       ",
"    o E $.$.,.j.q.$.t t $.3.j.j.j.o o.,X,X,Xo s $.$.$.$. .o o                                       ",
"    o E $.h.j.j.j.j.;...o G $.a.j.#.Q > o o $.1.j.q.$.$. .o o                                       ",
"    o Q $.h.j.j.j.j.;.) O G $.q.r.$.Q o f g 3.q.j.a.3.=. .o X                                       ",
"    o E $.s.j.j.j.j.;...O g $.$.$.$.E o E $.j.j.j.j.j.>. .o X                                       ",
"    o E $.h.j.j.j.j.r.9.E P G ..$.G P Q ,.r.j.j.j.j.j.=. .o o                                       ",
"    o Q $.h.j.j.j.j.j.h.$.E o ) $.o g $.r.j.j.j.j.j.j.>. .o X                                       ",
"    o Q $.d.j.j.j.j.j.j.j.r.$.i o $.$.$.$.$.j.j.j.j.j.;...o o                                       ",
"    w G Q k.oXj.j.j.j.j.j.a.3.' Q Q E E ..$.j.j.j.XX$X' E o                                         ",
"      o o -X:Xj.j.j.j.j.j.j.j.j.j.w o O E $.j.j.j.%X,Xf o                                           ",
"      o o ;X:Xj.j.j.j.j.j.j.j.j.j.=.9.g...g 3.r.j.%X,Xf o                                           ",
"      o o -X:Xj.j.j.j.j.j.j.j.j.j.j.$X,X%.w #.,.j.%X,Xg o                                           ",
"          o Q ,X&Xj.j.j.j.j.j.j.j.j.j.j.:X,Xo Q ,X5.o                                               ",
"          o K g.l.@Xk.j.j.j.j.j.j.j.j.j.+X*XJ T g.' o                                               ",
"              o 9.,Xk.k.j.j.j.j.j.j.j.j.d.j.&.( o > o                                               ",
"                ^ %.%X*Xj.j.j.j.j.j.j.j.j.j.r.3.Q f o                                               ",
"                o w *X>Xj.j.j.j.j.j.j.j.j.j.j.s.#.P o                                               ",
"                    o o > Q j.j.j.j.j.j.j.j.#.( o o                                                 ",
"                    X q w Y :.=.:.:.:.:.:.=.E T o                                                   ",
"                            o o o o o o o o o o                                                     ",
"                                                                                                    ",
"                                                                                                    "
};
