/* XPM */
static char *_9795fa26d834dbb81ec5040944ae576wvR8Yh7htJoc9a8N[] = {
/* columns rows colors chars-per-pixel */
"50 50 138 2 ",
"   c None",
".  c gray13",
"X  c #222222",
"o  c #232323",
"O  c #322225",
"+  c #3B2226",
"@  c #3A2227",
"#  c #422927",
"$  c #442D27",
"%  c #4B2827",
"&  c #4B2D24",
"*  c #422228",
"=  c #46232A",
"-  c #4A232A",
";  c #52222B",
":  c #502629",
">  c #52232C",
",  c #5A222D",
"<  c #5A232D",
"1  c #5D2A2A",
"2  c #573725",
"3  c #583125",
"4  c #5C3D27",
"5  c #62232F",
"6  c #62242F",
"7  c #67272E",
"8  c #6B2D2B",
"9  c #6B2E2B",
"0  c #6D2F2B",
"q  c #6D2A2D",
"w  c #6D2A2E",
"e  c #732E2D",
"r  c #6E302B",
"t  c #73332A",
"y  c #73302F",
"u  c #7B332B",
"i  c #7D352B",
"p  c #78312C",
"a  c #743430",
"s  c #753830",
"d  c #753831",
"f  c #7A3C30",
"g  c #7B3C30",
"h  c #4A4228",
"j  c #5A422B",
"k  c #5B422B",
"l  c #584C29",
"z  c #6E4A27",
"x  c #6E4229",
"c  c #6E4428",
"v  c #704D2D",
"b  c #704D2E",
"n  c #7B5127",
"m  c #73612C",
"M  c #81372B",
"N  c #83392B",
"B  c #84392B",
"V  c #873B2A",
"C  c #813C28",
"Z  c #893C2A",
"A  c #80452A",
"S  c #8F4029",
"D  c #93412A",
"F  c #994529",
"G  c #885828",
"H  c #9F5E32",
"J  c #A74E27",
"K  c #AA5027",
"L  c #AE592B",
"P  c #AA5C2D",
"I  c #A95D2E",
"U  c #A95E2E",
"Y  c #B15924",
"T  c #B05825",
"R  c #B75826",
"E  c #B25D2A",
"W  c #B25D2B",
"Q  c #B05F2C",
"!  c #86702F",
"~  c #9D6033",
"^  c #9B6234",
"/  c #9B6235",
"(  c #AF612D",
")  c #B1602C",
"_  c #BE672B",
"`  c #BA732B",
"'  c #BB732B",
"]  c #A66030",
"[  c #A76030",
"{  c #A36432",
"}  c #AD7234",
"|  c #AE7736",
" . c #C56025",
".. c #C77229",
"X. c #C6722A",
"o. c #DE7C2B",
"O. c #9E8232",
"+. c #A98C34",
"@. c #CB892F",
"#. c #D3802D",
"$. c #D4802C",
"%. c #CA8930",
"&. c #CE9337",
"*. c #C39F37",
"=. c #D99732",
"-. c #D49C38",
";. c #E4822B",
":. c #E3822C",
">. c #E4862C",
",. c #E58A2E",
"<. c #ED8E2E",
"1. c #EE8E2E",
"2. c #EB9731",
"3. c #EF9630",
"4. c #EF9E32",
"5. c #F19D32",
"6. c #C4A137",
"7. c #D8A837",
"8. c #D3A13A",
"9. c #D4A13A",
"0. c #D7A738",
"q. c #DEB53B",
"w. c #DEB63A",
"e. c #DFB63A",
"r. c #EAA534",
"t. c #EAA535",
"y. c #F2A534",
"u. c #F4AC36",
"i. c #EDB037",
"p. c #E6B53C",
"a. c #E7B63C",
"s. c #EDB038",
"d. c #F7BB3A",
"f. c #F3BE3B",
"g. c #F6C03C",
"h. c #F8C33C",
"j. c #F9CA3E",
"k. c #FACB3E",
/* pixels */
"                                                                                                    ",
"                                                                                                    ",
"                                                                                                    ",
"                                                                                                    ",
"                                                                                                    ",
"                                                                                                    ",
"            X X o o o o                                                     X o o o o X             ",
"            o X X X X X X                                                 X X X X X X X             ",
"            o X X X X X X                                                 X X X X X X X             ",
"o o o o o o O.+.+.b - - + X o o o o o o o o o o o o o o o o o o o o o o o + - - v +.+.! o o o o X o ",
"X X X X X X 6.k.k.^ 6 6 * X X X X X X X X X X X X X X X X X X X X X X X X * 6 5 ^ k.k.*.X X X X X X ",
"X X X X X X 6.k.k.^ 5 5 * X X X X X X X X X X X X X X X X X X X X X X X X * 6 5 ^ k.k.6.X X X X X X ",
"X X X n G G =.u.u.[ p p A G G G G G G G G G G G G G G G G G G G G G G G G A p p ] u.u.=.G G n X X X ",
"X X X $.1.1.1.1.1.W S S _ 1.1.1.1.1.1.1.1.1.1.1.1.1.1.1.1.1.1.1.1.1.1.1.1._ S S W 1.1.1.1.1.#.X X X ",
"X X X $.1.1.1.1.1.W S S _ 1.1.1.1.1.1.1.1.1.1.1.1.1.1.1.1.1.1.1.1.1.1.1.1._ Z D W 1.1.1.1.1.$.X X X ",
"X X X ..o.o.5.y.y.I i i L o.o.o.o.o.o.o.o.o.o.o.o.o.o.o.o.o.o.o.o.o.o.o.o.L i i I y.y.2.o.o...X X X ",
"X X X Y  . .s.k.k.^ 5 5 D  . . . . . . . . . . . . . . . . . . . . . . . .D 5 5 ^ k.k.i. . .Y X X X ",
"X X X Y  . .s.k.k.^ 5 5 D  . . . . . . . . . . . . . . . . . . . . . . . .D 5 7 ^ k.k.i. . .Y X X X ",
"X X X Y  . .r.d.d.H q q F  . . . . . . . . . . . . . . . . . . . . . . . .F q q { d.d.r. . .K X X X ",
"X X X Y  . .:.1.1.W S S K  . . . . . . . . . . . . . . . . . . . . . . . .K S S E 1.1.:. . .Y X X X ",
"X X X Y  . .:.1.1.W S S K  . . . . . . . . . . . . . . . . . . . . . . . .K S Z E 1.1.:. . .Y X X X ",
"X X X Y  . .,.3.3.W Z Z J  . . . . . . . . . . . . . . . . . . . . . . . .K Z Z W 3.3.>. . .Y X X X ",
"X X X Y  . .i.k.k.^ 6 6 D  . . . . . . . . . . . . . . . . . . . . . . . .D 5 5 ^ k.k.i. . .Y X X X ",
"X X X Y  . .i.k.k.^ 5 5 D  . . . . . . . . . . . . . . . . . . . . . . . .D 5 5 ^ k.k.i. . .L X X X ",
"X X X Y  . .s.k.k.^ 6 6 D  . . . . . . . . . . . . . . . . . . . . . . . .D 7 5 ~ k.k.i. . .Y X X X ",
"X X X Y  . .:.1.1.W S S K  . . . . .R S S Z 5 5 5 6 5 5 Z S S R  . . . . .K S S ) 1.1.;. . .K X X X ",
"X X X Y  . .:.1.1.W S S K  . . . . .R S S Z 6 5 5 5 5 5 Z S S R  . . . . .K Z S E 1.1.;. . .Y X X X ",
"X X X Y  . .:.1.1.W S S K  . . . . .R S S Z 6 6 5 5 5 5 Z S S R  . . . . .K S S E 1.1.;. . .L X X X ",
"X X X 7.f.f.g.g.h.~ 7 7 } f.f.f.f.f.&.7 7 g a.a.p.p.p.p.g 7 7 -.f.f.f.f.f.} 7 7 H h.h.h.f.f.0.X X X ",
"X X X w.k.k.k.k.k.^ 6 6 | k.k.k.k.k.9.5 6 d k.k.k.k.k.k.d 5 5 9.k.k.k.k.k.| 5 5 ~ k.k.k.k.k.w.X X X ",
"X X X w.k.k.k.k.k.^ 6 6 | k.k.k.k.k.8.5 6 d k.k.k.k.k.k.d 5 5 9.k.k.k.k.k.| 5 5 ^ j.k.k.k.k.w.X X X ",
"X X X l l l @.5.5.P C i s l l l l l j 5 6 y 5.5.5.k.k.k.s 5 5 j l l l l l x B N ( 5.y.@.l l h X X X ",
"X X X X X X ' 1.1.W D Z 3 o X X X X O 5 5 y 1.1.1.k.k.j.d 5 5 O X X X X . 3 Z S W 1.1.` X X X X X X ",
"X X X X X X ' 1.1.W D Z 3 o X X X X O 5 5 y <.1.1.k.k.j.d 6 5 O X X X X . 3 D S W 1.1.` X X X X X X ",
"X X X = - - 4 z z 2 & & % - - - - - * + + # z z z m m m $ + + - - - - - - & & & 2 z z c - - = X X X ",
"X X X < 5 5 O X X X X X * 5 5 6 5 5 ; X X X X X X X X X X X X ; 5 5 5 5 5 * X X X X X O 5 5 < X X X ",
"X X X < 6 5 O o X X X X * 5 5 5 5 5 ; X X X X X X X X X X X X ; 5 5 5 5 5 * X X X X X O 5 5 < X X X ",
"X X X r p p % * * * * * 1 p p p p p 9 * * * * * * * * * * * * 9 p p p p p 1 * * * * * : p p 0 X X X ",
"X X X C S S q 5 5 5 5 5 p S S S S S N 5 5 5 5 5 5 5 5 5 5 5 5 N S S S S S p 5 5 5 5 5 q S S C X X X ",
"X X X C S S q 5 5 5 5 5 p S S S S S N 5 5 5 5 5 5 5 5 5 5 5 5 N S S S S S p 5 5 5 5 5 q S S C X X X ",
"X X X t i i p e e e e e M S S S S S Z e e e e e e e e e e e e V S S S S S N e e e e e e i i t X X X ",
"X X X , 5 7 B S S S S S S S S S S S S S S S S S S S S S S S S S S S S S S D Z D S S D B 6 5 < X X X ",
"X X X , 5 5 B S S S S S S S S S S S S S S S S S S S S S S S S S S S S S S S Z D S S S B 5 5 < X X X ",
"X X X , 5 5 p N B B N N N N N N N N N N N N N N N N N N N N N N N N N N N N B M N N N p 5 5 < X X X ",
"X X X < 5 5 5 5 5 5 5 5 5 5 5 5 5 5 5 5 5 5 5 5 5 5 5 5 5 5 5 5 5 5 5 5 5 5 5 5 5 5 5 5 5 5 < X X X ",
"X X X < 5 5 5 5 5 5 5 5 5 5 5 5 5 5 5 5 5 5 5 5 5 5 5 5 5 6 5 5 5 5 5 5 5 5 5 5 5 5 5 5 5 5 < X X X ",
"X X X ; , , , , , , , , , , , , , , , , , , , , , , , , , , , , , , , , < , , < < , < < < < ; X X X ",
"X X X X X X X X X X X X X X X X X X X X X X X X X X X X X X X X X X X X X X . X X . X X X X X X X X ",
"X X X X X X X X X X X X X X X X X X X X X X X X X X X X X X X X X X X X X X X X X X X X X X X X X X ",
"X X X X X X X X X X X X X X X X X X X X X X X X X X X X X X X X X X X X X X X X X X X X X X X X X X "
};
