/* XPM */
static char *_c72ee3488364cf3c34fc8fe1cdea38aA8A3MEtlXa5qlznU[] = {
/* columns rows colors chars-per-pixel */
"50 50 198 2 ",
"   c None",
".  c gray13",
"X  c #222222",
"o  c #232222",
"O  c #232322",
"+  c #232323",
"@  c #2F2F2F",
"#  c #322225",
"$  c #3C2F31",
"%  c #3D3D3B",
"&  c #3D3C3C",
"*  c #402227",
"=  c #422228",
"-  c #52222B",
";  c #5A222D",
":  c #5A232D",
">  c #4B3122",
",  c #4A3123",
"<  c #4A3223",
"1  c #4B3324",
"2  c #583125",
"3  c #502C38",
"4  c #5C2F3E",
"5  c #62232F",
"6  c #6D2F2B",
"7  c #732E2D",
"8  c #64302B",
"9  c #6E302B",
"0  c #733927",
"q  c #73332A",
"w  c #73302F",
"e  c #7B332B",
"r  c #79362A",
"t  c #7D352B",
"y  c #78312C",
"u  c #7F3A2D",
"i  c #7F3A2E",
"p  c #743430",
"a  c #753830",
"s  c #753831",
"d  c #66483E",
"f  c #683143",
"g  c #4A4A48",
"h  c #574A4B",
"j  c #585754",
"k  c #595755",
"l  c #595854",
"z  c #595855",
"x  c #666561",
"c  c #74726E",
"v  c #75726E",
"b  c #83392B",
"n  c #84392B",
"m  c #873A2B",
"M  c #813C28",
"N  c #893C2A",
"B  c #8C3F29",
"V  c #86442D",
"C  c #86452D",
"Z  c #8F4029",
"A  c #974B2E",
"S  c #974B2F",
"D  c #9C5024",
"F  c #9F562A",
"G  c #8B4337",
"H  c #8E5C30",
"J  c #9F5E35",
"K  c #AA5027",
"L  c #B15924",
"P  c #B05825",
"I  c #B75826",
"U  c #B25928",
"Y  c #B05B2B",
"T  c #B25D2A",
"R  c #B35D2A",
"E  c #B25D2B",
"W  c #9B6234",
"Q  c #9B6235",
"!  c #906C32",
"~  c #9E7733",
"^  c #A1652A",
"/  c #A2652A",
"(  c #AC632F",
")  c #AD6C2A",
"_  c #BC6627",
"`  c #B4652D",
"'  c #BD6628",
"]  c #BE672B",
"[  c #B7712B",
"{  c #BA732B",
"}  c #BB732B",
"|  c #A56131",
" . c #A66030",
".. c #A76030",
"X. c #A46231",
"o. c #A26C35",
"O. c #AD6B31",
"+. c #B06930",
"@. c #AE7736",
"#. c #B77431",
"$. c #CB5A3A",
"%. c #C56025",
"&. c #C56026",
"*. c #CB6B29",
"=. c #CD6D29",
"-. c #D47128",
";. c #C57C30",
":. c #C67C30",
">. c #CC733E",
",. c #8E4C44",
"<. c #845552",
"1. c #88585E",
"2. c #915651",
"3. c #955F5D",
"4. c #95605D",
"5. c #A76642",
"6. c #AA6E5A",
"7. c #B47A58",
"8. c #8B6568",
"9. c #996969",
"0. c #827F7A",
"q. c #9C7376",
"w. c #D26D53",
"e. c #C44570",
"r. c #C54570",
"t. c #D14876",
"y. c #DB4A7B",
"u. c #DC4A7B",
"i. c #DC4B7B",
"p. c #D57660",
"a. c #9B8132",
"s. c #A98B34",
"d. c #C6872F",
"f. c #D3802D",
"g. c #D4802C",
"h. c #C88730",
"j. c #DF9531",
"k. c #E4822B",
"l. c #E3822C",
"z. c #EE8E2E",
"x. c #EA9931",
"c. c #EC9831",
"v. c #C4A037",
"b. c #DCA636",
"n. c #D4A13A",
"m. c #DEB53B",
"M. c #DFB63A",
"N. c #EFA735",
"B. c #E8A936",
"V. c #E8AA36",
"C. c #E9AD37",
"Z. c #F2A534",
"A. c #F4AC36",
"S. c #F5B438",
"D. c #F7BB3A",
"F. c #F7BC3A",
"G. c #F9CA3E",
"H. c #FACB3E",
"J. c #B98268",
"K. c #BC8D70",
"L. c #C78B4F",
"P. c #D38657",
"I. c #D38658",
"U. c #F1A85D",
"Y. c #DA9870",
"T. c #E06089",
"R. c #8F8C87",
"E. c #9D9A94",
"W. c #AAA6A0",
"Q. c #AAA7A0",
"!. c #CDA389",
"~. c #E1AB89",
"^. c #D7A6AF",
"/. c #D4B6A1",
"(. c #E8BEA1",
"). c #E8BEA2",
"_. c #EBB0AB",
"`. c #EBBBAD",
"'. c #C6C1BA",
"]. c #DAC9BA",
"[. c #E1C4AF",
"{. c #EFD1BA",
"}. c #EFD1BB",
"|. c #F1B6C2",
" X c #F2C2C4",
".X c #F5CCD0",
"XX c #E1DBD3",
"oX c #E1DCD3",
"OX c #E1DDD3",
"+X c #F6E3D4",
"@X c #F6E4D4",
"#X c #F9E0DF",
"$X c #F9E1DF",
"%X c #FCF6EC",
"&X c #FDF6EC",
"*X c #FDF7EC",
"=X c #FDF6ED",
"-X c #FDF7ED",
/* pixels */
"            X X X X X X X                                                 X X X X X X X             ",
"            + X X X X X X                                                 X X X X X X X             ",
"            + X X X X X X                                                 X X X O O X X             ",
"X X X X X X [ g.g.C : : * X X X X X X X X X X X X X X X X X X X + + + X X * : : C g.:.^ X X X X X X ",
"X X X X X X } z.z.A 5 5 = X X X X X X X X X X X X X X X X X X X + X X X + = 5 5 A z.z.{ X X X X X X ",
"X X X X X X } z.z.A 5 5 = X X + X X X X X X X X X X X X X X X X + + X X X = 5 5 A z.z.{ X X X X X X ",
"X X X / } } V.F.F.O.n b F { { { { } } } } } } } } } } } } } } } { { { { [ K n n ` F.F.C.} } ) X X X ",
"X X X g.z.z.F.H.H.#.Z Z ] z.z.z.z.z.z.z.z.z.z.z.z.z.z.z.z.z.z.z.z.z.z.z.z.] Z Z { H.H.F.z.z.g.X X X ",
"X X X g.z.z.F.H.H.[ Z Z ] z.z.z.z.z.z.z.z.z.z.z.z.z.z.z.z.z.z.z.z.z.z.z.z.] Z Z [ H.G.D.z.z.f.X X X ",
"X X X ' -.-.x.Z.Z.` Z Z L -.-.-.-.-.=.R Y Y S A S S S S Y R R =.-.-.-.-.-.L Z Z ` Z.Z.x.-.-._ X X X ",
"X X X L &.&.l.z.z.Y Z Z K %.&.&.%.%.I Z Z N 5 5 5 5 5 5 N Z Z I %.%.%.%.%.K Z Z E z.z.k.&.&.P X X X ",
"X X X L &.&.l.z.z.` Z Z K %.%.&.%.%.I Z Z N 5 5 5 5 5 5 N Z Z I %.%.%.%.%.K Z Z Y z.z.k.%.%.P X X X ",
"X X X h.x.j.N.A.A. .y y ( x.j.j.j.j.;.y y u @.@.@.@.@.@.b y y ;.j.j.j.j.j.( y y X.A.A.A.j.j.d.X X X ",
"X X X M.G.G.H.H.G.Q 5 5 @.G.G.G.H.H.n.5 5 s H.H.H.H.H.G.s 5 5 n.H.H.H.H.G.@.5 5 Q H.G.G.H.H.M.X X X ",
"X X X M.G.G.G.G.G.W 5 5 @.G.G.G.H.H.n.5 5 s H.H.H.H.H.G.s 5 5 n.H.H.H.H.H.@.5 5 Q H.H.H.H.H.M.X X X ",
"X X X a.s.s.C.S.S.X.7 7 H s.s.s.s.s.~ 5 5 p S.S.S.H.H.G.s 5 5 ! s.s.s.s.s.H 7 7 X.S.S.b.s.s.a.X X X ",
"X X X X X X } z.z.T Z Z 3 X X X X X # 5 5 w z.z.z.G.H.G.s 5 5 # X X X X X 2 Z Z Y z.z.} X X X X X X ",
"X X X X X + } z.z.` Z C 1 X X X X X # 5 5 w z.z.z.H.H.G.a 5 5 # X X X X X 2 Z Z Y z.z.{ + + X X X X ",
"X X X g j j o.} { 5.6.6.h + X @ j j h - - 8 U.U.U.v.v.v.<.1.1.$ X X & j l d 0 0 X.U.U.L.1 > 1 X X X ",
"X X X XX-X-Xj o X W.*X*XR.+ X c -X-X'.X X % -X-X-XX X + XX-X-Xl X + W.-X-XR.X X v -X*X{.%.%.K X X X ",
"X X X XX-X-Xj o X W.%X%X0.X X c -X-X'.X X % -X-X-XX X + OX-X%Xj X X W.-X-XR.X X v -X-X{.%.%.P X X X ",
"X X X oX-X-Xj o X E.OXOXJ.X X c -X-X'.X X % OXOXoXX X + XX-X-Xj X X E.OXOX0.X X v -X-X{.%.%.P X X X ",
"X X X oX-X-Xj X X X X X X X X c -X-X'.X X X X X X X X + XX-X-Xj X X X X X X X X v -X-X{.%.%.P X X X ",
"X X X oX-X-Xj X X X X X X X X c -X-X'.X X X X X X X X X XX-X-Xj X X X X X X X X v -X-X{.%.%.P X X X ",
"X X X oX-X-Xj + X X X X X X X v -X-X'.X X X X X X X X + oX-X-Xj X X X X X X X X v -X%X{.&.&.P X X X ",
"X X X L %.%.1 X X X X X X X X X X X 3 u.u.u.u.u.u.u.u.u.u.u.u.3 X X X X X X X X X X X > %.&.P X X X ",
"X X X L &.&.1 X X X X X X X X X X X 3 u.u.u.u.u.u.u.u.u.u.u.y.3 X X X X X X X X X X X > %.%.P X X X ",
"X X X L &.&.1 X X X X X X + + + o X 3 u.u.u.u.u.u.u.u.u.u.u.y.3 X X X X X X X X X X X > %.%.L X X X ",
"X X X L %.%.[.OXOXx X X 0.OXOX^.r.r.r.u.u.u.u.u.u.#X#X#XT.u.u.t.r.r.4 X X 0.OXOXE.X X l @X@X].X X X ",
"X X X L %.%.{.%X-Xv X X R.-X-X|.u.u.u.u.u.u.u.u.u.-X-X-XT.u.u.u.u.u.f X X R.-X-XW.X X l -X-XXXX X X ",
"X X X L &.&.{.-X-Xv X X R.-X-X|.u.u.u.u.u.u.u.u.u.-X-X-XT.u.u.u.u.u.f X X R.-X-XW.X X l -X-XOXX X X ",
"X X X L &.&.{.-X-XK.D D !.-X-X`.$.$.p..X.X X$.$.$.-X-X-Xw.$.$._..X.XJ.D D !.-X-X/.D D 7.-X-XXXX X X ",
"X X X L %.%.{.-X-XY.%.%.~.-X-X(.%.%.P.-X-X@X%.%.%.-X-X%X>.%.%.}.-X-XY.%.%.~.-X-X(.%.%.I.-X-XXXo X X ",
"X X X L %.%.{.%X%XY.%.%.~.%X-X(.%.%.P.%X%X@X%.%.%.-X-X%X>.%.%.}.-X-XY.%.%.~.-X-X(.%.%.P.-X-XXXX X X ",
"X X X r m m 4.q.q.,.m m 2.q.q.3.n m G q.q.9.m m m q.q.q.G m m 4.q.q.,.m m 2.q.q.4.m m G q.q.8.X X X ",
"X X X ; 5 5 5 5 5 5 5 5 5 5 5 5 5 5 5 5 5 5 5 5 5 5 5 5 5 5 5 5 5 5 5 5 5 5 5 5 5 5 5 5 5 5 ; X X X ",
"X X X ; 5 5 5 5 5 5 5 5 5 5 5 5 5 5 5 5 5 5 5 5 5 5 5 5 5 5 5 5 5 5 5 5 5 5 5 5 5 5 5 5 5 5 : X X X ",
"X X X 9 y y y y y y y y y y y y y y y y y y y y y y y y y y y y y y y y y y y y y y y y y y 9 X X X ",
"X X X M Z Z Z Z Z Z Z Z Z Z Z Z Z Z Z Z Z Z Z Z Z Z Z Z Z Z Z Z Z Z Z Z Z Z Z Z Z Z Z Z Z Z M X X X ",
"X X X M Z Z Z Z Z Z Z Z Z Z Z Z Z Z Z Z Z Z Z Z Z Z Z Z Z Z Z Z Z Z Z Z Z Z Z Z Z Z Z Z Z Z M X X X ",
"X X X q t t Z Z Z Z Z Z Z Z Z Z Z Z Z Z Z Z Z Z Z Z Z Z Z Z Z Z Z Z Z Z Z Z Z Z Z Z Z N t t q X X X ",
"X X X : 5 5 n Z Z Z Z Z Z Z Z Z Z Z Z Z Z Z Z Z Z Z Z Z Z Z Z Z Z Z Z Z Z Z Z Z Z Z Z n 5 5 : X X X ",
"X X X : 5 5 n Z Z Z Z Z Z Z Z Z Z Z Z Z Z Z Z Z Z Z Z Z Z Z Z Z Z Z Z Z Z Z Z Z Z Z Z n 5 5 : X X X ",
"X X X : 5 5 y b n n n b b b b b b b b b b b b b b b b b b b b b b b b b b b b n n b b y 5 5 : X X X ",
"X X X : 5 5 5 5 5 5 5 5 5 5 5 5 5 5 5 5 5 5 5 5 5 5 5 5 5 5 5 5 5 5 5 5 5 5 5 5 5 5 5 5 5 5 : X X X ",
"X X X : 5 5 5 5 5 5 5 5 5 5 5 5 5 5 5 5 5 5 5 5 5 5 5 5 5 5 5 5 5 5 5 5 5 5 5 5 5 5 5 5 5 5 : X X X ",
"X X X - ; ; ; ; ; ; ; ; ; ; ; ; ; ; ; ; ; ; ; ; ; ; ; ; ; ; ; ; ; ; ; ; ; ; ; ; ; ; ; ; ; ; - X X X ",
"X X X X X X X X X X X X X X X X X X X X X X X X X X X X X X X X X X X X X X X X X X X X X X X X X X ",
"X X X X X X X X X X X X X X X X X X X X X X X X X X X X X X X X X X X X X X X X X X X X X X X X X X ",
"X X X X X X X X X X X X X X X X X X X X X X X X X X X X X X X X X X X X X X X X X X X X X X X X X X "
};
