/* XPM */
static char *_8adb9065cd844af8081962a20297e69lgCozSloCL7BUklt[] = {
/* columns rows colors chars-per-pixel */
"50 50 38 1 ",
"  c #222222",
". c #242323",
"X c #262525",
"o c #2B2828",
"O c #2C2928",
"+ c #2E2929",
"@ c #302B2B",
"# c #352E2E",
"$ c #37302F",
"% c #3A3131",
"& c #3E3434",
"* c #3E3534",
"= c #413635",
"- c #433837",
"; c #463938",
": c #473B38",
"> c #483B3A",
", c #493D3A",
"< c #493C3B",
"1 c #4C3F3B",
"2 c #4B3D3C",
"3 c #4D3F3D",
"4 c #4E3F3D",
"5 c #534341",
"6 c #574642",
"7 c #594743",
"8 c #594744",
"9 c #5F4B47",
"0 c #624D49",
"q c #634E49",
"w c #65504B",
"e c #6B534E",
"r c #6B544E",
"t c #6C544E",
"y c #6C544F",
"u c #715751",
"i c #715851",
"p c #775C55",
/* pixels */
"         %>>#            >>>>>>>>>+  $>>$.        ",
"         %>>#            >>>>>>>>>+..$>>$.        ",
"         %>>#            >>>>>>>;<+  $>>$   ..    ",
"   *-----;>>;------------>>>>>>+XX.  ;ii9-----:yrr",
"   ->>>>>>>>>>>>>>>>>>>>>>>>>>>o     4ppq<>>>>3ppp",
"   ->>>>>>>>>>>>>>>>>>>>>>>>>>>o .   4ppw<>>>>3ppp",
"***>>>>>>>>>>>>>>>>>>>>>>>>>>>>=*****%$$*>>>>>5ppp",
">>>>>>>>>>>>>>>>>>>>>>>>>>>>>>>><;<<;$  +<>>>><ppp",
">>>>>>>>>>>>>>>>>>>>>>>>>>>>>>>>>>>>>#  @>>>><4ppp",
">>>0wwwww5>>>>>>>>>>>>>>>>>>>>>>>>>>>=%%*>>>><4ppp",
">>>uppppp8>>>>>>>>>>>>>>>>>>>>>>>>>>>>>>>>>>>>3ppp",
">>>uppppp8>>>>>>>>>>>>>>>>>>>>>>>>>>>>>>>>>>>>3ppp",
"###,11111,>>>>>>>>>>>>>>>>>>>>>>>>>>>>>>>>>>>>3ppp",
"         %>>>>>>>>>>>>>>>>>>>>>>>>>>>>>>>>>>>>3ppp",
"         %>>>>>>>>>>>>>>>>>>>>>>>>>>>>>>>>>>>>4ppp",
"@@@@@@@@@*>>>>>>>>>>>>>>>>>>>>>>>>>>>>>>>>>>><4ppp",
">>>>>>>>>>>>>>>>>>>>>>>>>>>>>>>>;<<<;<<;<<<;<;5ppp",
">>>>>>>>>>>>>>>>>>>>>>>>>>>>>>>><<;<;<<;<;<<<;<ppp",
"*&*;>>>>>>>>>>>>>>>>>>>>>>>>>>>><;<;<<<<;<;<;<4yyy",
"   ->>>>>>>>>>>>>>>>>>>>>>>>>>>><;<<<;;<<<;<<;<;>>",
"   =>>>>>>>>>>>>>>>>>>>>>>>>>>>><;<<<;;<<;<<;<;<>;",
"   ;>>>>>>>>>>>>>>>>>>>>>>>>>>>><;<;<<<<<<;<;<4344",
"   ->>>>>>>>>>>>>>>>>>>>>>>>>>>><<;<;<<;;;<<<<3ppp",
"   ->>>>>>>>>>>>>>>>>>>>>>>>>>>>;<<<;<<;<<<;<;3ppp",
"   -;;<<>>>>>>>>>>>>>>>>>>>>>>>><;<<<;<<<;;<;<3ppp",
"   -<,<;>>>>>>>>>>>>>>>>>>>>>>>><;<;<<;<<<<<<<;<;,",
"   -<<<;>>>>>>>>>>>>>>>>>>>>>>>><<;<;;<<;<<;<;<;<;",
"   -;;<<>>>>>>>>>>>>>>>>>>>>>>>>;<<<<<<;;<<;<<;4;4",
"-;-<<<<;>>>>>>>>>>>>>>>>>>>>>>>><<;;;<<<<<<;;<3iiu",
">;<;<;<<>>>>>>>>>>>>>>>>>>>>>>>>;<<<<<;;<;<<<<3ppp",
">><<;<;<>>>>>>>>>>>>>>>>>>>>>>>>;<<<<;<<;<;<<;4ppp",
">>;<<<;<>>>>>>>>>>>>>>>>>rre4>>><<;;<<;<<<;<;<4ppp",
">>>>>>>>>>>>>>>>;<<<;<<;<ppp3<,>>>>>>>>>>>>>>>3ppp",
">>>>>>>>>>>>>>>><<;<;<<;<ppp3::<>>>>>>>>>>>>>>3ppp",
"+++;>>>>>>>>>>>><;<;<<<<>*--0ww3>>>>>>>>>>>>>>4888",
"...->>>>>>>>>>>><;<<<;;<> ..rpp5>>>>>>>>>>>>>><;;<",
".. ->>>>>>>>>>>><;<<>>>:>.  epp8>>>>>>>>>>>>>>>>;<",
"   ->>>>>>>>>>>><:<;><999   :<>:>>>>>>>>>>>>>>>><<",
"   ->>>>>>>>>>>>;<:<>5ppp   .  *>>>>>>>>>>>>>>>>,;",
"   ->>>>>>>>>>>><;<;><ppp   .  *>>>>>>>>>>>>>>>><;",
"   -<<<;>>>>>>>>>>>>>>668++++++*<<<;<;;<>>>>>>4888",
"   -;;<<>>>>>>>>>>>>>-  .<<><;4>;;<<<<<<>>>>>>4ppp",
"   -<<;<>>>>>>>>>>>>>-. .>>><<>><<;<;<<;>>>><;4ppp",
"  .;<;<<>>>>>>>>>>>>>-. .>>><<>><;<<;<<;>>>><;4ppp",
"   -;<;;>>>>>>>>>>>>:-  .>>><,:><<;<;<<<<;;<;;3ppp",
"   -<;<<>>>>>>>>>>>>>- . ;>><<<>;<;<<<;<<<<<<<3ppp",
"+oo<<35<5:>>>>><33<>>-o+o<<5333<<44><<3<444<446ppp",
"ppppppppp8>>>>>8ppy>>3pppppppppppp8>;0pppppppppppp",
"ppppppppp8;>>>>8ppy;>3pppppppppppp8<>9pppppppppppp",
"ppppppppp8<:>>>8ppy><3pppppppppppp8<>9pppppppppppp"
};
