/* XPM */
static char *result[] = {
/* columns rows colors chars-per-pixel */
"50 50 54 1 ",
"  c #222222",
". c #242323",
"X c gray14",
"o c #262525",
"O c #272525",
"+ c #272625",
"@ c #292726",
"# c #292727",
"$ c #2B2828",
"% c #2C2828",
"& c #2C2928",
"* c #2E2929",
"= c #2D2A29",
"- c #2E2A29",
"; c #2D2A2A",
": c #302B2B",
"> c #322C2C",
", c #332D2C",
"< c #332D2D",
"1 c #342E2D",
"2 c #352E2E",
"3 c #352F2E",
"4 c #37302E",
"5 c #37302F",
"6 c #393131",
"7 c #3A3131",
"8 c #3C3332",
"9 c #3D3332",
"0 c #3C3432",
"q c #3E3434",
"w c #3F3434",
"e c #3E3534",
"r c #403635",
"t c #413635",
"y c #423735",
"u c #433737",
"i c #423835",
"p c #433837",
"a c #443936",
"s c #443938",
"d c #463938",
"f c #483B3A",
"g c #493C3B",
"h c #4C3E3B",
"j c #4C3F3B",
"k c #4E3F3E",
"l c #554441",
"z c #574641",
"x c #574642",
"c c #614D48",
"v c #624D48",
"b c #654F4B",
"n c #6C554F",
"m c #775C55",
/* pixels */
"mmmmmm5  zmmmmmmmmmmmmmmmmmm&  vmmmmmmmmx  4mmmmmm",
"mmmmmm5  zmmmmmmmmmmmmmmmmmm&  vmmmmmmmmx  4mmmmmm",
"mmmmmm5  zmmmmmmmmmmmmmmmmmm&  vmmmmmmmmx  4mmmmmm",
"kkkkkk-  9kkkkkkkkkkkkkkkkkko  tkkkkkkkk8  $kkkkkk",
"ffffff$  7ffffffffffffffffffo  effffffff6  $ffffff",
"ffffff$  7ffffffffffffffffffo  effffffff6  $ffffff",
"ffffff$  7fffffw$$<fffffffffo  efffff7$$O  $ffffff",
"ffffff$  7fffff6  $fffffffffo  efffff2     $ffffff",
"ffffff$  7fffff6  $fffffffffo  efffff2     $ffffff",
"::::::o  $:::::%  X:::::::::.  $:::::#     X::::::",
"                                                  ",
"                                                  ",
"jjj+  yjjjjj5  >jjjjjjjjjjjjjjjjjj>  5jjjjjjjjjjjj",
"mmm&  vmmmmmj  ymmmmmmmmmmmmmmmmmmi  jmmmmmmmmmmmm",
"mmm&  vmmmmmj  ymmmmmmmmmmmmmmmmmmi  jmmmmmmmmmmmm",
"bbb3::lbbbbba  0bbbbbbbbbbbbbbbbbb0  abbbbbbbbbbbb",
"ffffffffffff2  :ffffffffffffffffff:  2ffffffffffff",
"ffffffffffff2  :ffffffffffffffffff:  2ffffffffffff",
"ffffffffffff2  :ffffffffffffffffff:  2ffdqqrffffff",
"ffffffffffff2  :ffffffffffffffffff:  2ff6  $ffffff",
"ffffffffffff2  :ffffffffffffffffff:  2ff6  $ffffff",
"uuuuuuuuuuuu,  =uuuuuuuuuuuuuuuuuu*  ,uu5  @uuuuuu",
"                                                  ",
"                                                  ",
"                                                  ",
"mmmmmmmmmmmmmmmmmmmmmn   mmmmmmmmmmmmmmmmmmc      ",
"mmmmmmmmmmmmmmmmmmmmmn   mmmmmmmmmmmmmmmmmmc      ",
"mmmmmmmmmmmmmmmmmmmmmn   mmmmmmmmmmmmmmmmmmc      ",
"kkkkkkkkkkkkkkkkkkkkkg   kkkkkkkkkkkkkkkkkks  Oppp",
"fffffffffffffffffffffp   ffffffffffffffffffq  Offf",
"fffffffffffffffffffffp   ffffffffffffffffffq  Offf",
"fffffffff5$$7ffffffffp   ffffffffffffffffffq  Offf",
"fffffffff:  2ffffffffp   ffffffffffffffffffq  Offf",
"fffffffff:  2ffffffffp   ffffffffffffffffffq  Offf",
":::::::::o  #::::::::;   ::::::::::::::::::;  X:::",
"                                                  ",
"                                                  ",
"jjjjjj&  0jjjjjjjjjjjjjjjjjjjjj&  0jjjjjjjjjjjjjjj",
"mmmmmm5  zmmmmmmmmmmmmmmmmmmmmm5  zmmmmmmmmmmmmmmm",
"mmmmmm5  zmmmmmmmmmmmmmmmmmmmmm5  zmmmmmmmmmmmmmmm",
"bbbbbb1  hbbbbbbbbbbbbbbbbbbbbb1  hbbbbbbbbbbbbbbb",
"ffffff$  7fffffffffffffffffffff$  7fffffffffffffff",
"ffffff$  7fffffffffffffffffffff$  7fffffffffffffff",
"ffffff$  7fffffffffffffffqqqdff$  7ffpqqrfffffffff",
"ffffff$  7fffffffffffffff   pff$  7ff2  :fffffffff",
"ffffff$  7fffffffffffffff   pff$  7ff2  :fffffffff",
"uuuuuu$  5uuuuuuuuuuuuuuu   quu$  5uu,  =uuuuuuuuu",
"                                                  ",
"                                                  ",
"                                                  "
};
